<svg width="40" height="35" viewBox="0 0 40 35" fill="none" xmlns="http://www.w3.org/2000/svg">
<path d="M37.7428 22.7601H2.25722C0.997375 22.7601 0 23.7485 0 24.8851V26.6148C0 27.7514 0.997375 28.6904 2.25722 28.6904H2.78215V29.1846C2.78215 31.9026 5.14436 34.077 7.979 34.077H32.021C34.9081 34.077 37.2178 31.8532 37.2178 29.1846V28.6904H37.7428C38.9501 28.6904 40 27.7514 40 26.5654V24.8357C40 23.7485 39.0026 22.7601 37.7428 22.7601ZM35.6955 29.1846C35.6955 31.0625 34.0682 32.5945 32.0735 32.5945H7.92651C5.93176 32.5945 4.30446 31.0625 4.30446 29.1846V28.6904H35.6955V29.1846ZM38.4252 26.5654C38.4252 26.9113 38.1102 27.2078 37.7428 27.2078H2.25722C1.88976 27.2078 1.5748 26.9113 1.5748 26.5654V24.8357C1.5748 24.5392 1.88976 24.2427 2.25722 24.2427H37.7953C38.1627 24.2427 38.4777 24.5392 38.4777 24.8851V26.5654H38.4252Z" fill="#81B3D2"/>
<path d="M8.50395 18.757L11.3386 20.7336L14.2257 18.757L17.1129 20.7336L20 18.757L22.8347 20.7336L25.7218 18.757L28.6089 20.7336L31.4961 18.757L34.3832 20.7336L37.6903 18.4111L36.7979 17.2251L34.3832 18.8558L31.4961 16.8792L28.6089 18.8558L25.7218 16.8792L22.8347 18.8558L20 16.8792L17.1129 18.8558L14.2257 16.8792L11.3386 18.8558L8.50395 16.8792L5.61681 18.8558L3.20211 17.2251L2.25723 18.4111L5.61681 20.7336L8.50395 18.757Z" fill="#81B3D2"/>
<path d="M37.2179 15.3969C37.2179 15.1003 37.2704 14.112 37.2179 13.9143C36.8504 6.20502 29.2914 0.02771 20 0.02771C10.7087 0.02771 3.09713 6.20502 2.72968 13.9143C2.72968 14.112 2.72968 15.1003 2.72968 15.3969H37.2179ZM20 1.51026C28.399 1.51026 35.3281 7.04513 35.6431 13.9143H4.30448C4.67193 7.04513 11.6011 1.51026 20 1.51026Z" fill="#81B3D2"/>
<path d="M20 8.42883C20.5798 8.42883 21.0499 7.98634 21.0499 7.44049C21.0499 6.89464 20.5798 6.45215 20 6.45215C19.4202 6.45215 18.9501 6.89464 18.9501 7.44049C18.9501 7.98634 19.4202 8.42883 20 8.42883Z" fill="#81B3D2"/>
<path d="M15.8005 6.00696C16.3803 6.00696 16.8504 5.56443 16.8504 5.01855C16.8504 4.47267 16.3803 4.03015 15.8005 4.03015C15.2207 4.03015 14.7506 4.47267 14.7506 5.01855C14.7506 5.56443 15.2207 6.00696 15.8005 6.00696Z" fill="#81B3D2"/>
<path d="M24.1995 6.00696C24.7793 6.00696 25.2493 5.56443 25.2493 5.01855C25.2493 4.47267 24.7793 4.03015 24.1995 4.03015C23.6196 4.03015 23.1496 4.47267 23.1496 5.01855C23.1496 5.56443 23.6196 6.00696 24.1995 6.00696Z" fill="#81B3D2"/>
</svg>
