<svg width="32" height="38" viewBox="0 0 32 38" fill="none" xmlns="http://www.w3.org/2000/svg">
<path d="M30.5778 11.7881H30.527H18.1841C25.0921 8.42781 25.6508 6.30293 25.3968 5.11695C24.8381 3.18973 22.5524 1.70725 20.419 2.49791C17.6254 3.53564 16.8635 7.58774 16.1016 10.5033C15.1365 7.53832 14.2222 3.78272 12.0381 1.8555C11.4286 1.31193 10.5143 0.768351 9.14286 0.867183C7.11111 1.06485 4.21587 3.48622 5.43492 6.2041C6.55238 8.82314 10.2603 10.5033 12.7492 11.8375H1.42222C0.609524 11.8375 0 12.4799 0 13.2211V18.7557C0 19.5464 0.660317 20.1394 1.42222 20.1394H1.5746V37.9291H30.527V20.1394H30.5778C31.3905 20.1394 32 19.497 32 18.7557V13.2211C32 12.4305 31.3397 11.7881 30.5778 11.7881ZM21.2317 3.7333C22.2984 3.58506 23.7206 4.37571 23.873 5.31461C24.0762 6.64884 22.1968 7.88424 21.3333 8.42781C20.0635 9.26788 18.8444 9.71262 17.6762 10.4044C18.0825 8.57606 18.946 4.0298 21.2317 3.7333ZM9.75238 8.57606C8.63492 7.83482 6.50159 6.40176 6.55238 4.77104C6.60317 2.99207 9.44762 1.559 10.9714 2.89323C12.9016 4.52396 13.8159 8.32898 14.527 10.9974C12.9016 10.2068 11.3778 9.61379 9.75238 8.57606ZM12.7492 36.4466H3.04762V20.1394H12.7492V36.4466ZM12.7492 18.6569H1.52381V13.2706H12.7492V18.6569ZM17.8286 36.4466H14.2222V13.2706H17.8286V36.4466ZM29.0032 36.4466H19.3524V20.1394H29.054V36.4466H29.0032ZM30.4762 18.6569H19.3524V13.2706H30.4762V18.6569Z" fill="#81B3D2"/>
</svg>
