<svg width="40" height="35" fill="none" xmlns="http://www.w3.org/2000/svg"><path d="M37.743 22.76H2.257C.997 22.76 0 23.748 0 24.885v1.73c0 1.136.997 2.075 2.257 2.075h.525v.495c0 2.718 2.362 4.892 5.197 4.892h24.042c2.887 0 5.197-2.224 5.197-4.892v-.495h.525c1.207 0 2.257-.939 2.257-2.125v-1.73c0-1.087-.997-2.075-2.257-2.075zm-2.047 6.425c0 1.878-1.628 3.41-3.622 3.41H7.927c-1.995 0-3.623-1.532-3.623-3.41v-.495h31.392v.495zm2.73-2.62c0 .346-.316.643-.683.643H2.257c-.367 0-.682-.297-.682-.643v-1.73c0-.296.315-.592.682-.592h35.538c.368 0 .683.296.683.642v1.68h-.053zM8.504 18.757l2.835 1.977 2.887-1.977 2.887 1.977L20 18.757l2.835 1.977 2.887-1.977 2.887 1.977 2.887-1.977 2.887 1.977 3.307-2.323-.892-1.186-2.415 1.63-2.887-1.976-2.887 1.977-2.887-1.977-2.887 1.977L20 16.879l-2.887 1.977-2.887-1.977-2.887 1.977-2.835-1.977-2.887 1.977-2.415-1.63-.945 1.185 3.36 2.323 2.887-1.977zm28.714-3.36c0-.297.052-1.285 0-1.483C36.85 6.205 29.29.028 20 .028S3.097 6.205 2.73 13.914v1.483h34.488zM20 1.51c8.399 0 15.328 5.535 15.643 12.404H4.304C4.672 7.045 11.601 1.51 20 1.51z" fill="#81B3D2"/><path d="M20 8.429c.58 0 1.05-.443 1.05-.989 0-.545-.47-.988-1.05-.988-.58 0-1.05.443-1.05.988 0 .546.47.989 1.05.989zm-4.2-2.422c.58 0 1.05-.443 1.05-.988 0-.546-.47-.989-1.05-.989-.58 0-1.05.443-1.05.989 0 .545.47.988 1.05.988zm8.4 0c.58 0 1.05-.443 1.05-.988 0-.546-.47-.989-1.05-.989-.58 0-1.05.443-1.05.989 0 .545.47.988 1.05.988z" fill="#81B3D2"/></svg>