<svg width="32" height="38" fill="none" xmlns="http://www.w3.org/2000/svg"><path d="M30.578 11.788H18.184c6.908-3.36 7.467-5.485 7.213-6.671-.559-1.927-2.845-3.41-4.978-2.62-2.794 1.039-3.556 5.09-4.317 8.006-.966-2.965-1.88-6.72-4.064-8.648-.61-.543-1.524-1.087-2.895-.988-2.032.198-4.927 2.62-3.708 5.337 1.117 2.62 4.825 4.3 7.314 5.634H1.422A1.4 1.4 0 000 13.22v5.535c0 .79.66 1.383 1.422 1.383h.153v17.79h28.952V20.14h.05A1.4 1.4 0 0032 18.756V13.22c0-.79-.66-1.433-1.422-1.433zm-9.346-8.055c1.066-.148 2.489.643 2.641 1.582.203 1.334-1.676 2.57-2.54 3.113-1.27.84-2.489 1.285-3.657 1.976.407-1.828 1.27-6.374 3.556-6.67zM9.752 8.576c-1.117-.741-3.25-2.174-3.2-3.805.051-1.779 2.896-3.212 4.42-1.878 1.93 1.631 2.844 5.436 3.555 8.104-1.625-.79-3.15-1.383-4.775-2.42zm2.997 27.87H3.048V20.14h9.701v16.308zm0-17.79H1.524v-5.385h11.225v5.386zm5.08 17.79h-3.607V13.272h3.607v23.176zm11.174 0h-9.65V20.14h9.701v16.308h-.05zm1.473-17.79H19.352v-5.385h11.124v5.386z" fill="#81B3D2"/></svg>